<svg width="181" height="55" viewBox="0 0 181 55" fill="none" xmlns="http://www.w3.org/2000/svg">
<g clip-path="url(#clip0_1542_3)">
<path d="M34.1434 45.5508L26.3911 53.8383H41.894L34.1434 45.5508Z" fill="url(#paint0_linear_1542_3)"/>
<path d="M0.00532869 53.7892L16.3045 36.199C16.242 35.8255 16.1844 35.452 16.1729 35.0719C15.7912 30.5275 17.2752 25.9173 20.0359 22.3108C23.2128 18.0839 28.2373 15.1174 33.5859 14.9808C36.5489 14.8591 39.53 15.5518 42.1509 16.9371C47.4584 19.6503 51.2177 25.0585 52.0929 30.9372C52.3924 32.7273 52.3562 34.5471 52.1176 36.3421L68.2868 53.7925C68.2802 52.2936 68.2375 50.7947 68.2457 49.2958C68.249 45.8505 68.2325 42.4035 68.2375 38.9565C68.2177 36.2006 68.3493 33.4315 68.0285 30.6855C67.7554 27.9213 67.1154 25.195 66.1892 22.5773C64.3399 17.5624 61.3423 12.9768 57.4942 9.26661C53.2462 5.2586 47.9848 2.27397 42.2825 0.941258C36.1557 -0.521438 29.6308 -0.272994 23.6323 1.63888C17.6536 3.60998 12.2606 7.27741 8.17055 12.0587C4.45071 16.3333 1.8743 21.5835 0.750612 27.1382C0.0481044 30.1869 -0.02264 33.3312 0.00861913 36.4474C0.00532869 42.2275 -0.00454262 48.0091 0.00368347 53.7892H0.00532869Z" fill="url(#paint1_linear_1542_3)"/>
<path d="M21.0654 53.8384H26.442L34.1433 45.5262L41.8445 53.8384H47.2211L34.1433 39.7231L21.0654 53.8384Z" fill="url(#paint2_linear_1542_3)"/>
<path d="M34.1432 16.988L0 53.8384H12.7916L34.13 30.8088L55.4669 53.8384H68.2864L34.1432 16.988Z" fill="url(#paint3_linear_1542_3)"/>
<path d="M75 24.3968V7.31714H81.0993C82.0266 7.31714 82.8664 7.54934 83.6185 8.01234C84.3707 8.47534 84.9671 9.09824 85.4051 9.87826C85.8444 10.6597 86.0641 11.5175 86.0641 12.4519C86.0641 13.3862 85.8389 14.2803 85.387 15.0561C84.9351 15.8333 84.3318 16.4507 83.5754 16.9109C82.8191 17.3697 81.9933 17.6005 81.0993 17.6005H77.9767V24.3954H75V24.3968ZM77.9767 14.6251H80.7823C81.205 14.6251 81.5915 14.5194 81.9404 14.3081C82.2908 14.0967 82.5688 13.8117 82.776 13.4544C82.9832 13.097 83.0874 12.698 83.0874 12.2586C83.0874 11.8193 82.9832 11.4091 82.776 11.0504C82.5688 10.693 82.2908 10.408 81.9404 10.1967C81.5901 9.98532 81.205 9.87965 80.7823 9.87965H77.9767V14.6251Z" fill="black"/>
<path d="M87.4541 24.3968V7.31714H98.1636V10.294H90.4294V13.7589H96.5648V16.7357H90.4294V21.42H98.1636V24.3968H87.4541Z" fill="black"/>
<path d="M99.8002 24.3968V7.31714H103.02L110.229 19.016V7.31714H113.206V24.3954H109.997L102.775 12.6966V24.3954H99.7988L99.8002 24.3968Z" fill="black"/>
<path d="M121.232 24.7138C120.288 24.7138 119.384 24.5651 118.518 24.2689C117.652 23.9727 116.894 23.5459 116.244 22.9883C115.593 22.4308 115.126 21.762 114.841 20.982L117.634 19.9573C117.748 20.2826 117.98 20.5788 118.329 20.8471C118.678 21.1155 119.105 21.331 119.61 21.4937C120.114 21.6563 120.655 21.7384 121.232 21.7384C121.809 21.7384 122.38 21.6466 122.898 21.4645C123.413 21.2809 123.831 21.0251 124.148 20.6956C124.465 20.366 124.623 19.9823 124.623 19.5429C124.623 19.1036 124.456 18.7282 124.123 18.4389C123.789 18.1497 123.362 17.9203 122.842 17.7493C122.322 17.5783 121.785 17.449 121.232 17.3586C120.02 17.1723 118.935 16.8831 117.976 16.4924C117.017 16.1017 116.258 15.5608 115.701 14.8698C115.145 14.1788 114.866 13.2833 114.866 12.1863C114.866 11.1532 115.162 10.2509 115.756 9.47781C116.349 8.70475 117.131 8.10271 118.098 7.67168C119.066 7.24066 120.111 7.02515 121.233 7.02515C122.169 7.02515 123.071 7.17114 123.942 7.46451C124.812 7.75789 125.574 8.18474 126.229 8.74507C126.884 9.3068 127.354 9.98114 127.637 10.7709L124.832 11.7831C124.718 11.4577 124.485 11.1616 124.136 10.8919C123.786 10.6235 123.359 10.4094 122.856 10.2509C122.351 10.0924 121.81 10.0131 121.233 10.0131C120.656 10.0048 120.109 10.0965 119.593 10.287C119.076 10.4789 118.656 10.7361 118.331 11.0615C118.005 11.3868 117.843 11.7609 117.843 12.1835C117.843 12.7286 117.995 13.1387 118.3 13.4154C118.604 13.6921 119.013 13.8937 119.526 14.0189C120.039 14.1454 120.608 14.2608 121.233 14.3665C122.372 14.5458 123.425 14.8462 124.394 15.2688C125.361 15.6915 126.138 16.2546 126.724 16.9582C127.309 17.6617 127.602 18.521 127.602 19.5388C127.602 20.5565 127.311 21.477 126.724 22.2528C126.138 23.0301 125.361 23.6335 124.394 24.0645C123.426 24.4955 122.372 24.711 121.233 24.711L121.232 24.7138Z" fill="black"/>
<path d="M129.636 24.3968V7.31714H132.613V24.3954H129.636V24.3968Z" fill="black"/>
<path d="M142.786 24.7137C141.631 24.7137 140.545 24.4843 139.529 24.0241C138.512 23.5652 137.617 22.9284 136.845 22.1151C136.072 21.3017 135.467 20.3604 135.028 19.2911C134.589 18.2219 134.369 17.0776 134.369 15.8569C134.369 14.6361 134.589 13.4932 135.028 12.4226C135.467 11.3533 136.074 10.412 136.845 9.59866C137.618 8.78528 138.512 8.14847 139.529 7.68964C140.545 7.23081 141.631 7 142.786 7C143.941 7 145.038 7.22942 146.055 7.68964C147.071 8.14847 147.966 8.78528 148.738 9.59866C149.51 10.412 150.114 11.3533 150.55 12.4226C150.985 13.4918 151.202 14.6361 151.202 15.8569C151.202 17.0776 150.985 18.2219 150.55 19.2911C150.114 20.3604 149.511 21.3017 148.738 22.1151C147.965 22.9284 147.071 23.5652 146.055 24.0241C145.038 24.4829 143.948 24.7137 142.786 24.7137ZM142.786 21.7369C143.534 21.7369 144.238 21.5825 144.897 21.2739C145.556 20.9652 146.135 20.5397 146.634 19.9989C147.135 19.458 147.524 18.8337 147.805 18.126C148.086 17.4183 148.226 16.6619 148.226 15.8569C148.226 15.0518 148.085 14.294 147.8 13.5822C147.515 12.8703 147.122 12.246 146.622 11.7093C146.121 11.1726 145.544 10.7499 144.89 10.4412C144.235 10.1326 143.534 9.97824 142.786 9.97824C142.038 9.97824 141.335 10.1326 140.676 10.4412C140.017 10.7499 139.437 11.1754 138.938 11.7162C138.437 12.2571 138.047 12.8814 137.767 13.5891C137.486 14.2968 137.346 15.0532 137.346 15.8582C137.346 16.6633 137.488 17.4322 137.773 18.1399C138.058 18.8476 138.45 19.4719 138.95 20.0128C139.451 20.5536 140.028 20.9763 140.683 21.2808C141.337 21.5853 142.038 21.7383 142.787 21.7383L142.786 21.7369Z" fill="black"/>
<path d="M152.593 24.3968V7.31714H155.813L163.022 19.016V7.31714H165.999V24.3954H162.79L155.568 12.6966V24.3954H152.592L152.593 24.3968Z" fill="black"/>
<path d="M81.6137 29.5623H85.2716L91.8978 47.7876H88.5263L87.3543 44.5591H79.5435L78.3715 47.7876H75L81.6137 29.5623ZM80.7017 41.3834H86.1823L83.435 33.8711L80.7017 41.3834Z" fill="black"/>
<path d="M103.685 29.5623V32.7393H98.1126V47.789H94.9371V32.7393H89.3647V29.5623H103.684H103.685Z" fill="black"/>
<path d="M105.768 47.7876V29.5623H112.758C113.748 29.5623 114.641 29.8097 115.44 30.3047C116.238 30.7997 116.872 31.4615 117.341 32.2902C117.809 33.1189 118.044 34.0366 118.044 35.0432C118.044 35.8677 117.894 36.6255 117.595 37.3151C117.296 38.0048 116.879 38.6013 116.345 39.1046C115.811 39.6079 115.197 39.9903 114.503 40.2503L118.864 47.7876H115.206L110.988 40.5367H108.944V47.7876H105.769H105.768ZM108.943 37.3596H112.392C112.843 37.3596 113.256 37.247 113.628 37.0218C114.001 36.7965 114.301 36.492 114.527 36.111C114.752 35.7287 114.864 35.3032 114.864 34.8347C114.864 34.3661 114.752 33.9281 114.527 33.5458C114.3 33.1648 114.001 32.8603 113.628 32.635C113.256 32.4098 112.843 32.2972 112.392 32.2972H108.943V37.361V37.3596Z" fill="black"/>
<path d="M121.428 47.7876V29.5623H124.605V47.7876H121.428Z" fill="black"/>
<path d="M134.9 48.1267C133.442 48.1267 132.164 47.7708 131.066 47.0589C129.967 46.347 129.115 45.3904 128.507 44.1891C127.9 42.9878 127.597 41.653 127.597 40.1861V29.5635H130.772V40.1861C130.772 41.0538 130.935 41.8505 131.26 42.5749C131.585 43.2992 132.054 43.8763 132.666 44.3059C133.277 44.7355 134.021 44.9497 134.899 44.9497C135.776 44.9497 136.529 44.7355 137.137 44.3059C137.745 43.8763 138.206 43.2992 138.523 42.5749C138.84 41.8505 138.999 41.0538 138.999 40.1861V29.5635H142.175V40.1861C142.175 41.2887 142.002 42.319 141.655 43.2784C141.308 44.2378 140.813 45.0817 140.171 45.8103C139.528 46.5389 138.762 47.1076 137.872 47.5163C136.983 47.9237 135.991 48.1281 134.899 48.1281L134.9 48.1267Z" fill="black"/>
<path d="M144.781 47.7876L148.322 29.5623H150.951L155.391 41.2402L159.83 29.5623H162.459L166 47.7876H162.759L160.572 36.5129L156.472 47.3705H154.298L150.198 36.5129L148.023 47.7876H144.783H144.781Z" fill="black"/>
</g>
<defs>
<linearGradient id="paint0_linear_1542_3" x1="26.3911" y1="49.6937" x2="41.894" y2="49.6937" gradientUnits="userSpaceOnUse">
<stop offset="0.17" stop-color="#4790CD"/>
<stop offset="0.35" stop-color="#6B88C5"/>
<stop offset="0.8" stop-color="#C676B1"/>
<stop offset="1" stop-color="#EA6FAA"/>
</linearGradient>
<linearGradient id="paint1_linear_1542_3" x1="0.000393037" y1="26.8963" x2="68.2868" y2="26.8963" gradientUnits="userSpaceOnUse">
<stop offset="0.17" stop-color="#4790CD"/>
<stop offset="0.35" stop-color="#6B88C5"/>
<stop offset="0.8" stop-color="#C676B1"/>
<stop offset="1" stop-color="#EA6FAA"/>
</linearGradient>
<linearGradient id="paint2_linear_1542_3" x1="21.0654" y1="46.78" x2="47.2211" y2="46.78" gradientUnits="userSpaceOnUse">
<stop stop-color="#1E3D72"/>
<stop offset="1" stop-color="#2A5299"/>
</linearGradient>
<linearGradient id="paint3_linear_1542_3" x1="0" y1="35.4124" x2="68.2864" y2="35.4124" gradientUnits="userSpaceOnUse">
<stop stop-color="#1E3D72"/>
<stop offset="1" stop-color="#2A5299"/>
</linearGradient>
<clipPath id="clip0_1542_3">
<rect width="181" height="55" fill="white"/>
</clipPath>
</defs>
</svg>
